# xmcd CD database file
#
# Track frame offsets:
#	150
#	13200
#	34725
#	47400
#	63000
#	84225
#	99675
#	116175
#	136425
#
# Disc length: 2041 seconds
#
# Revision: 0
# Processed by: cddbd v1.5.1PL0 Copyright (c) Steve Scherf et al.
# Submitted via: CDex 1.51
#
DISCID=7007f709
DTITLE=Cassandre McKinley - Right In Front Of You
DYEAR=1999
DGENRE=Jazz
TTITLE0=Anyone But You
TTITLE1=A Beautiful Friendship
TTITLE2=Never To Return
TTITLE3=Our Journey (Lexi's Song)
TTITLE4=Watch Yourself Go By
TTITLE5=Cravin' Spring
TTITLE6=It's Alright With Me
TTITLE7=Right In Front Of You
TTITLE8=Hit Me With A High Note And Watch Me Bounce
EXTD=YEAR: 1999
EXTT0=
EXTT1=
EXTT2=
EXTT3=
EXTT4=
EXTT5=
EXTT6=
EXTT7=
EXTT8=
PLAYORDER=
